<?xml version="1.0" standalone="yes"?>
<svg xmlns="http://www.w3.org/2000/svg" width="974" height="728">
<path style="fill:#ced7bb; stroke:none;" d="M33 115C30.3336 119.711 24.6831 121.256 20.1698 123.903C17.5548 125.436 15.9069 127.88 13.6227 129.812C9.61632 133.201 2.91276 136.178 0.742284 141.184C-0.745868 144.617 0 149.346 0 153L0 176L0 260L0 553C8.36358 553.173 17.7599 553.342 25.9599 555.044C31.8682 556.27 33.7864 560.23 40 557C41.247 564.443 45.2771 558.082 49.6829 560.171C51.7451 561.148 51.6517 563.717 53.0069 565.258C54.5271 566.988 56.9075 566.884 59 567L59 571L62 571L62 567L70 567L70 571L130 571C140.177 571 150.88 571.954 161 570.892C166.474 570.318 170.697 566.357 176.015 565.339C183.532 563.9 191.478 566.091 199 564.772C204.093 563.879 208.833 560.775 214 559.594C217.972 558.686 221.984 559.269 226 558.896C229.751 558.547 233.206 557.194 237 557L237 554C255.957 553.987 272.733 547.322 290.09 540.939C301.874 536.605 314.203 533.488 325.87 528.816C331.994 526.363 336.442 521.473 343 519.714C352.286 517.225 363.395 518.855 373 517.826C379.061 517.177 384.947 515.104 391 514.289C401.621 512.858 412.503 512.722 423 510.726C426.491 510.062 429.481 507.963 433 507.329C438.384 506.36 443.681 506.163 449 504.566C467.252 499.088 479.009 481.367 499 479.129C505.942 478.352 510.553 481.472 517 482.727C521.457 483.594 525.727 483.233 529.911 485.424C534.615 487.887 538.535 492.027 543.424 494.157C546.464 495.48 549.823 494.593 552.961 495.429C556.898 496.478 562.193 498.761 565.906 500.533C573.198 504.013 574.241 522.591 585 514C585.007 523.239 588.395 527.346 595.545 532.745C597.509 534.229 598.808 536.376 601.188 537.297C604.973 538.762 609.238 537.223 612.961 539.008C620.325 542.541 626.327 548.848 635.004 548.995C668.314 549.561 701.684 549 735 549C766.358 549 798.572 549.576 829 541.576C842.396 538.053 855.726 535.987 869 532.019C872.828 530.874 879.417 532.071 881.972 528.427C883.835 525.771 883 521.059 883 518L883 492C883 460.079 881.732 427.814 883.911 396C884.627 385.531 885.81 377.844 889.435 368C891.933 361.218 893.961 356.262 902 356C902.022 349.911 903.57 343.936 910.039 341.589C912.45 340.714 915.118 341.052 917.576 340.275C922.394 338.752 926.822 336.876 932 337.296C936.485 337.661 948.93 338.46 951.397 333.567C952.715 330.953 952 326.836 952 324L952 301C952 282.57 953.577 263.344 951.83 245C951.341 239.867 949.178 234.856 948.729 229.92C948.541 227.85 949.762 226.004 949.311 223.91C948.299 219.215 945.264 216.086 945 211C942.315 210.041 937.732 209.459 935.742 207.397C933.48 205.055 934.496 201.367 931.682 199.343C927.961 196.668 921.415 193.924 916.911 193.039C913.265 192.323 908.622 192.838 905.224 191.401C902.924 190.429 901.558 187.912 899.726 186.305C896.16 183.175 892.521 181.344 888 180.015C878.107 177.107 867.095 177.396 857 175.741C842.992 173.443 830.23 168.525 816 167.17C797.656 165.423 778.43 167 760 167C738.156 167 715.789 165.597 694 167.089C684.504 167.74 675.363 169.475 666 170.791C656.221 172.165 645.425 172.214 636 175.52C627.429 178.526 618.192 188.4 609.04 188.653C601.855 188.851 596.505 177.277 590.741 174.013C586.647 171.695 581.444 174.109 577.259 171.861C574.399 170.324 568.208 166.959 566.313 164.432C564.446 161.942 564.737 158.848 561.656 157.228C556.31 154.418 548.771 158.073 547.228 150.02C546.916 148.387 547.015 146.651 547 145C541.826 144.342 536.781 143.906 535.394 137.995C534.744 135.225 535.46 132.161 534.026 129.594C531.505 125.08 525.897 122.621 523.858 117.946C522.896 115.741 523.148 113.279 522.492 111C519.153 99.405 515.98 87.602 512.193 75.9854C510.036 69.3696 510.247 53.4969 501.981 51.3179C494.278 49.2874 485.848 50.8265 478.039 49.8704C474.521 49.4395 471.579 47.4031 467.996 47.0941C445.68 45.1699 422.406 47 400 47C347.857 47 295.074 43.6384 244 54.5448C236.293 56.1906 228.771 55.2006 221 57.5695C213.8 59.7645 209.116 64.2781 202.816 67.6875C200.878 68.736 198.336 68.6458 196.584 70.0131C194.127 71.9307 193.85 75.2847 190.941 77.0116C185.448 80.2736 177.569 76.655 172.633 80.0278C168.109 83.1194 166.543 88.8804 160.985 91.1466C157.873 92.4158 154.346 92.0281 151.17 93.1327C145.91 94.9614 141.464 98.9652 136 100.432C130.824 101.822 125.262 100.478 120 101.209C109.606 102.653 99.4656 105.923 89 106.896C83.068 107.447 77.0051 106.416 71.0895 107.129C65.0727 107.854 59.0607 109.836 53 110.7C50.1004 111.113 47.016 110.612 44.1698 111.302C40.0753 112.295 37.4456 114.757 33 115z"/>
<path style="fill:#b6a890; stroke:none;" d="M734 277L737 277L737 272L739 272L739 277L785 277C785.392 258.028 786 239.042 786 220C786 216.107 785.59 211.938 786.259 208.089C786.783 205.075 788.339 202.744 786.387 199.859C783.885 196.158 778.887 197 775 197L746 197C742.811 197 736.339 195.791 734.603 199.318C731.87 204.873 734 215.865 734 222L734 277M44 275L41 275C40.9092 307.917 40 341 40 374L40 398C40.0012 400.607 39.2613 404.966 41.6034 406.821C45.5815 409.972 56.1569 408 61 408C72.2071 408 83.8425 408.896 95 407.83C102.161 407.146 108.841 404.312 116 404L116 401C122.962 400.057 127.708 395.082 135 395C134.701 385.775 153.449 387.7 160.285 385.709C163.08 384.895 166.69 385.194 167.682 381.852C168.737 378.3 168 373.675 168 370L168 346C168 333.101 167.153 319.88 168.054 307.015C168.441 301.488 170.221 296.738 169.961 291C169.693 285.11 167.265 279.751 166.325 274C165.529 269.128 166 263.925 166 259C136.275 259 106.713 258 77 258L55 258C52.2257 258.001 47.9451 257.324 45.6034 259.179C42.2813 261.81 44 271.179 44 275M391 344C392.584 343.218 393.6 342.13 395 341L395 391C393.873 387.197 394.543 383.297 391 381L391.001 396C391.017 398.391 390.731 401.424 392.603 403.258C396.528 407.1 407.911 405 413 405L465 405C469.726 405 479.739 406.878 483.435 403.397C487.713 399.368 485 386.469 485 381L485 338C485 331.323 483.688 324.5 485 318C478.404 319.225 472.594 318.082 466 318.004C449.968 317.813 434.061 317 418 317C412.093 317 398.554 314.479 394.032 318.894C388.853 323.95 391 337.42 391 344z"/>
</svg>
