<?xml version="1.0" standalone="yes"?>
<svg xmlns="http://www.w3.org/2000/svg" width="974" height="728">
<path style="fill:#fcf5e2; stroke:none;" d="M0 0L0 17C14.8662 13.4608 32.7398 16 48 16L48 11L89 11C94.3308 0.715515 110.299 4 120 4L211 4L593 4L593 26C593 29.5103 592.476 33.587 593.843 36.9066C595.486 40.8933 599.682 44.0156 602.667 47C609.191 53.5245 615.658 60.1211 622.311 66.5139C627.198 71.2102 633.305 80.7537 640.093 82.5811C646.407 84.2806 654.488 83 661 83L703 83L829 83L881 83C891.795 83 903.595 82.1416 913.996 85.5625C918.963 87.196 921.496 92.3412 926.171 94.2616C933.633 97.327 945.99 95 954 95C957.156 95 961.911 94.179 964.682 96.0278C969.299 99.1083 967 112.121 967 117C967 137.992 968 158.956 968 180L968 351L968 407C968 415.664 969.256 425.408 967.852 433.957C967.119 438.421 962.739 440.322 962 445L966 445L966 554L962 554C960.534 558.844 955.5 559.245 954 564C949.11 564.381 948.155 566.276 948 571L944 571C939.913 585.146 923.599 583.085 912 584L912 587C907.14 587.054 902.831 588.914 897.999 588.995C883.534 589.238 868.375 587.514 854 589.129C848.494 589.747 843.562 592.776 837.996 592.981C788.149 594.818 737.885 593 688 593C641.81 593 595.143 594.96 549 592.981C545.154 592.816 543.111 590.906 539.715 589.579C529.85 585.726 520.79 580.431 511.039 576.175C508.305 574.982 506.019 572.1 503.001 571.658C499.325 571.12 497.814 575.165 494.816 576.397C491.156 577.901 485.885 577 482 577C458.052 577 433.93 576.148 410 577.019C406.521 577.145 403.418 578.487 400 578.871C394.117 579.532 387.918 579 382 579C378.736 584.919 366.311 584.008 360 585.707C355.734 586.855 351.432 588.643 347 588.946C342.28 589.268 336.765 588.024 332.184 589.318C329.47 590.085 328.186 592.665 325.816 593.978C322.982 595.547 318.204 596.216 315 596.741C307.839 597.913 300.297 595.913 293.171 597.26C289.885 597.881 287.208 600.137 283.91 600.74C279.981 601.459 275.91 600.523 272 601.471C268.204 602.391 264.966 604.519 261 604.896C249.533 605.985 237.519 605 226 605L158 605L0 605L0 728L974 728L974 0L0 0z"/>
<path style="fill:#ece5d4; stroke:none;" d="M89 11L48 11L48 16L14 16C10.6719 16 4.38471 14.825 1.6034 17.0278C-0.564494 18.7448 0.0049811 22.5803 0 25L0 48L0 141C6.90227 135.946 13.0735 128.904 20.1698 124.376C24.5514 121.58 31.1957 120.254 33 115C37.8976 114.882 40.6114 112.357 45.0895 111.302C47.97 110.624 51.0701 111.117 54 110.7C60.0425 109.839 66.0378 107.833 72.0394 107.129C77.9755 106.432 84.0497 107.449 90 106.896C100.466 105.923 110.606 102.653 121 101.209C126.262 100.478 131.824 101.822 137 100.432C142.451 98.9687 146.833 94.908 152.09 93.1327C155.285 92.0533 158.847 92.4423 161.961 91.1466C167.411 88.8787 168.833 82.9062 173.39 80.0278C178.235 76.9666 185.582 80.0464 190.941 77.4861C194.374 75.8463 194.421 71.9987 197.313 70.0131C199.195 68.7217 201.694 68.8113 203.675 67.6875C210.276 63.9434 215.347 59.4316 223 57.2855C230.156 55.2787 236.842 55.9125 244 54.7407C260.757 51.9975 277.052 48.3326 294 47.0903C318.391 45.3023 343.538 47 368 47L434 47C445.074 47 457.018 45.7266 467.996 47.1883C471.197 47.6145 473.905 49.47 477.09 49.8704C484.65 50.8207 492.413 49.9223 499.999 51.1473C509.858 52.7391 509.675 68.5089 511.88 75.9854C513.949 83.002 516.684 89.8521 518.402 97C520.098 104.056 520.821 112.236 523.858 118.871C525.794 123.1 530.905 125.692 533.525 129.594C535.818 133.009 534.283 137.244 536.009 140.852C537.879 144.76 543.25 144.704 547 145C547.005 146.657 546.915 148.37 547.109 150.02C548.101 158.466 556.331 154.344 561.656 157.688C564.605 159.541 564.286 162.703 566.313 165.112C568.271 167.439 573.738 170.31 576.455 171.861C580.861 174.377 586.455 171.586 590.741 174.563C596.168 178.334 601.837 189.027 609.04 188.84C617.725 188.615 627.283 179.982 635 176.372C642.046 173.076 651.356 172.63 659 171.439C691.242 166.414 723.364 167 756 167C775.415 167 795.676 165.329 815 167.17C829.234 168.525 841.992 173.443 856 175.741C867.556 177.636 881.085 176.842 892 181.688C896.935 183.878 899.844 189.302 904.414 191.401C907.664 192.894 912.425 192.363 915.961 193.039C920.695 193.944 926.799 196.743 930.853 199.343C934.138 201.451 933.056 204.72 935.178 207.397C936.939 209.618 942.321 210.371 945 211C945.121 216.162 947.613 219.174 948.818 223.91C949.41 226.237 948.045 228.41 948.524 230.754C949.583 235.931 951.315 240.589 951.83 246C953.546 264.017 952 282.898 952 301L952 323C952 325.979 952.651 329.983 951.397 332.772C948.891 338.34 936.934 337.449 932 337.159C926.459 336.834 921.877 338.668 916.714 340.275C914.231 341.049 911.515 340.685 909.089 341.589C902.611 344.003 902.005 350.087 902 356C893.097 356.105 892.139 360.809 889.036 368C884.888 377.609 884.804 385.771 883.83 396C880.856 427.251 883 459.589 883 491L883 517C883 520.221 883.772 524.794 881.972 527.656C879.265 531.96 873.207 530.595 869 531.714C855.336 535.35 841.688 537.977 828 541.576C819.674 543.765 810.472 545.872 801.961 546.871C796.361 547.529 790.622 546.678 785 547.09C781.273 547.363 777.727 548.637 774 548.91C759.158 549.998 743.883 549 729 549C697.74 549 666.239 550.146 635.004 548.981C626.883 548.679 620.794 542.398 613.911 539.008C610.205 537.184 605.909 538.699 602.094 537.297C599.596 536.379 598.246 534.34 596.255 532.745C589.43 527.282 585.032 523.249 585 514C583.217 514.98 583.406 514.908 583 517C572.805 515.427 574.648 505.391 567.656 501C564.229 498.848 556.921 495.956 552.961 495.228C550.064 494.695 547.069 495.351 544.286 494.157C539.433 492.075 535.469 487.924 530.83 485.424C526.695 483.195 522.427 483.588 518 482.727C511.169 481.398 506.319 478.555 499 479.054C478.509 480.452 466.492 499.016 448 504.566C442.681 506.163 437.384 506.36 432 507.329C428.481 507.963 425.491 510.062 422 510.726C411.503 512.722 400.621 512.858 390 514.289C383.947 515.104 378.061 517.177 372 517.826C362.397 518.855 351.284 517.222 342 519.714C335.496 521.46 331.084 526.385 325 528.816C313.307 533.486 300.942 536.482 289.17 540.939C272.297 547.328 255.468 553.949 237 554L237 557C232.827 557.098 229.102 558.514 225 558.896C220.984 559.269 216.972 558.686 213 559.594C207.833 560.775 203.093 563.879 198 564.772C190.487 566.09 182.542 563.874 175.039 565.339C170.078 566.308 166.031 569.952 161 570.776C151.454 572.341 140.67 571 131 571L70 571L70 567L62 567L62 571L59 571L59 567C56.6913 566.74 54.5324 566.581 53.0069 564.571C51.7967 562.976 51.8088 560.474 49.6829 559.661C45.2885 557.982 41.9775 563.291 40 557C33.7469 559.372 31.8934 555.945 25.9599 554.885C17.6867 553.408 8.40146 553.07 0 553L0 605L176 605L234 605C243.42 605 253.675 606.146 263 604.79C266.874 604.227 270.171 601.941 274 601.263C277.859 600.579 281.897 601.548 285.711 600.54C288.636 599.767 291.078 597.811 294.09 597.26C301.255 595.949 308.809 597.918 316 596.741C319.133 596.228 323.935 595.572 326.675 593.978C329.058 592.591 330.286 590.077 333.093 589.318C337.74 588.061 343.225 589.272 348 588.946C352.432 588.643 356.734 586.855 361 585.707C366.678 584.178 380.045 584.892 382 579C388.245 579 394.792 579.568 401 578.871C404.418 578.487 407.521 577.145 411 577.019C434.598 576.16 458.385 577 482 577C486.069 577 491.87 578.038 495.675 576.397C498.311 575.261 499.748 571.697 503.001 572.161C505.644 572.539 507.706 575.109 510.09 576.175C519.806 580.522 528.95 585.786 538.834 589.579C542.206 590.874 544.184 592.816 548.001 592.981C566.26 593.766 584.722 593 603 593L713 593L797 593C811.208 593 825.791 593.958 839.961 592.946C845.125 592.577 849.841 589.708 855 589.129C869.374 587.514 884.531 589.24 898.996 588.995C903.497 588.919 907.498 587.131 912 587L912 584C922.839 583.535 941.719 585.352 944 571L948 571C948.335 566.606 949.556 564.709 954 564C956.286 559.64 961.148 559.123 962 554L966 554L966 445L962 445C963.08 441.232 966.651 439.363 967.682 435.791C970.092 427.447 968 415.682 968 407L968 344L968 178C968 157.289 967 136.661 967 116C967 111.655 969.262 97.857 964.682 95.6034C962.016 94.2916 957.883 95 955 95C946.734 95 936.017 96.8094 928.039 94.5671C922.466 93.0007 919.792 86.6888 913.996 85.2994C890.651 79.7026 863.916 83 840 83L701 83L660 83C653.943 83 645.85 84.3852 640.093 82.2979C634.745 80.3584 630.261 73.895 626.486 69.8557C619.109 61.9614 610.981 54.6473 603.333 47C599.859 43.5258 594.954 39.8685 593.51 34.9854C590.831 25.925 593 13.4321 593 4L209 4L118 4C109.525 4 92.2423 0.607422 89 11z"/>
<path style="fill:#c7c3ab; stroke:none;" d="M33 115C30.3336 119.711 24.6831 121.256 20.1698 123.903C17.5548 125.436 15.9069 127.88 13.6227 129.812C9.61632 133.201 2.91276 136.178 0.742284 141.184C-0.745868 144.617 0 149.346 0 153L0 176L0 260L0 553C8.36358 553.173 17.7599 553.342 25.9599 555.044C31.8682 556.27 33.7864 560.23 40 557C41.247 564.443 45.2771 558.082 49.6829 560.171C51.7451 561.148 51.6517 563.717 53.0069 565.258C54.5271 566.988 56.9075 566.884 59 567L59 571L62 571L62 567L70 567L70 571L130 571C140.177 571 150.88 571.954 161 570.892C166.474 570.318 170.697 566.357 176.015 565.339C183.532 563.9 191.478 566.091 199 564.772C204.093 563.879 208.833 560.775 214 559.594C217.972 558.686 221.984 559.269 226 558.896C229.751 558.547 233.206 557.194 237 557L237 554C255.957 553.987 272.733 547.322 290.09 540.939C301.874 536.605 314.203 533.488 325.87 528.816C331.994 526.363 336.442 521.473 343 519.714C352.286 517.225 363.395 518.855 373 517.826C379.061 517.177 384.947 515.104 391 514.289C401.621 512.858 412.503 512.722 423 510.726C426.491 510.062 429.481 507.963 433 507.329C438.384 506.36 443.681 506.163 449 504.566C467.252 499.088 479.009 481.367 499 479.129C505.942 478.352 510.553 481.472 517 482.727C521.457 483.594 525.727 483.233 529.911 485.424C534.615 487.887 538.535 492.027 543.424 494.157C546.464 495.48 549.823 494.593 552.961 495.429C556.898 496.478 562.193 498.761 565.906 500.533C573.198 504.013 574.241 522.591 585 514C585.007 523.239 588.395 527.346 595.545 532.745C597.509 534.229 598.808 536.376 601.188 537.297C604.973 538.762 609.238 537.223 612.961 539.008C620.325 542.541 626.327 548.848 635.004 548.995C668.314 549.561 701.684 549 735 549C766.358 549 798.572 549.576 829 541.576C842.396 538.053 855.726 535.987 869 532.019C872.828 530.874 879.417 532.071 881.972 528.427C883.835 525.771 883 521.059 883 518L883 492C883 460.079 881.732 427.814 883.911 396C884.627 385.531 885.81 377.844 889.435 368C891.933 361.218 893.961 356.262 902 356C902.022 349.911 903.57 343.936 910.039 341.589C912.45 340.714 915.118 341.052 917.576 340.275C922.394 338.752 926.822 336.876 932 337.296C936.485 337.661 948.93 338.46 951.397 333.567C952.715 330.953 952 326.836 952 324L952 301C952 282.57 953.577 263.344 951.83 245C951.341 239.867 949.178 234.856 948.729 229.92C948.541 227.85 949.762 226.004 949.311 223.91C948.299 219.215 945.264 216.086 945 211C942.315 210.041 937.732 209.459 935.742 207.397C933.48 205.055 934.496 201.367 931.682 199.343C927.961 196.668 921.415 193.924 916.911 193.039C913.265 192.323 908.622 192.838 905.224 191.401C902.924 190.429 901.558 187.912 899.726 186.305C896.16 183.175 892.521 181.344 888 180.015C878.107 177.107 867.095 177.396 857 175.741C842.992 173.443 830.23 168.525 816 167.17C797.656 165.423 778.43 167 760 167C738.156 167 715.789 165.597 694 167.089C684.504 167.74 675.363 169.475 666 170.791C656.221 172.165 645.425 172.214 636 175.52C627.429 178.526 618.192 188.4 609.04 188.653C601.855 188.851 596.505 177.277 590.741 174.013C586.647 171.695 581.444 174.109 577.259 171.861C574.399 170.324 568.208 166.959 566.313 164.432C564.446 161.942 564.737 158.848 561.656 157.228C556.31 154.418 548.771 158.073 547.228 150.02C546.916 148.387 547.015 146.651 547 145C541.826 144.342 536.781 143.906 535.394 137.995C534.744 135.225 535.46 132.161 534.026 129.594C531.505 125.08 525.897 122.621 523.858 117.946C522.896 115.741 523.148 113.279 522.492 111C519.153 99.405 515.98 87.602 512.193 75.9854C510.036 69.3696 510.247 53.4969 501.981 51.3179C494.278 49.2874 485.848 50.8265 478.039 49.8704C474.521 49.4395 471.579 47.4031 467.996 47.0941C445.68 45.1699 422.406 47 400 47C347.857 47 295.074 43.6384 244 54.5448C236.293 56.1906 228.771 55.2006 221 57.5695C213.8 59.7645 209.116 64.2781 202.816 67.6875C200.878 68.736 198.336 68.6458 196.584 70.0131C194.127 71.9307 193.85 75.2847 190.941 77.0116C185.448 80.2736 177.569 76.655 172.633 80.0278C168.109 83.1194 166.543 88.8804 160.985 91.1466C157.873 92.4158 154.346 92.0281 151.17 93.1327C145.91 94.9614 141.464 98.9652 136 100.432C130.824 101.822 125.262 100.478 120 101.209C109.606 102.653 99.4656 105.923 89 106.896C83.068 107.447 77.0051 106.416 71.0895 107.129C65.0727 107.854 59.0607 109.836 53 110.7C50.1004 111.113 47.016 110.612 44.1698 111.302C40.0753 112.295 37.4456 114.757 33 115z"/>
<path style="fill:#b6a890; stroke:none;" d="M734 277L737 277L737 272L739 272L739 277L785 277C785.392 258.028 786 239.042 786 220C786 216.107 785.59 211.938 786.259 208.089C786.783 205.075 788.339 202.744 786.387 199.859C783.885 196.158 778.887 197 775 197L746 197C742.811 197 736.339 195.791 734.603 199.318C731.87 204.873 734 215.865 734 222L734 277M44 275L41 275C40.9092 307.917 40 341 40 374L40 398C40.0012 400.607 39.2613 404.966 41.6034 406.821C45.5815 409.972 56.1569 408 61 408C72.2071 408 83.8425 408.896 95 407.83C102.161 407.146 108.841 404.312 116 404L116 401C122.962 400.057 127.708 395.082 135 395C134.701 385.775 153.449 387.7 160.285 385.709C163.08 384.895 166.69 385.194 167.682 381.852C168.737 378.3 168 373.675 168 370L168 346C168 333.101 167.153 319.88 168.054 307.015C168.441 301.488 170.221 296.738 169.961 291C169.693 285.11 167.265 279.751 166.325 274C165.529 269.128 166 263.925 166 259C136.275 259 106.713 258 77 258L55 258C52.2257 258.001 47.9451 257.324 45.6034 259.179C42.2813 261.81 44 271.179 44 275M391 344C392.584 343.218 393.6 342.13 395 341L395 391C393.873 387.197 394.543 383.297 391 381L391.001 396C391.017 398.391 390.731 401.424 392.603 403.258C396.528 407.1 407.911 405 413 405L465 405C469.726 405 479.739 406.878 483.435 403.397C487.713 399.368 485 386.469 485 381L485 338C485 331.323 483.688 324.5 485 318C478.404 319.225 472.594 318.082 466 318.004C449.968 317.813 434.061 317 418 317C412.093 317 398.554 314.479 394.032 318.894C388.853 323.95 391 337.42 391 344z"/>
</svg>
